<svg width="34" height="34" viewBox="0 0 34 34" fill="none" xmlns="http://www.w3.org/2000/svg">
<g clip-path="url(#clip0_1_865)">
<path d="M34.0935 16.9453C34.0935 19.5143 33.5236 21.9485 32.5044 24.1328C31.9766 25.2586 31.3308 26.3199 30.5812 27.2941C27.4732 31.3371 22.588 33.9453 17.0935 33.9453C7.7049 33.9453 0.0935059 26.3339 0.0935059 16.9453C0.0935059 7.55671 7.70771 -0.0546875 17.0935 -0.0546875C26.4793 -0.0546875 34.0935 7.55671 34.0935 16.9453Z" fill="#4D91A6"/>
<path d="M31.405 24.0052C30.8951 25.1025 30.2712 26.1368 29.547 27.0864H28.2858C26.8211 27.0864 25.3808 26.6622 24.163 25.8413C24.1548 25.8358 24.1467 25.8304 24.1386 25.8249C23.4333 25.346 22.7878 24.7851 22.2182 24.1529C21.5021 23.3594 20.5338 22.0377 19.9561 20.1824C19.5872 18.9893 19.4787 17.8975 19.4787 17.0109C19.4787 16.1927 19.3892 15.0872 19.0041 13.8476C18.3612 11.7734 17.2247 10.3751 16.5195 9.63624C17.3115 8.80984 18.2365 8.11479 19.259 7.58119C19.7689 7.31576 20.3033 7.09137 20.8593 6.91077C21.1007 6.91077 21.3394 6.93539 21.5727 6.98191C21.8086 7.02843 22.0365 7.09958 22.2589 7.18988C22.9234 7.46352 23.55 7.80284 24.1386 8.19962C26.9486 10.1042 28.7984 13.3386 28.7984 17.0109C28.7984 19.6898 29.783 22.1362 31.405 24.0024V24.0052Z" fill="url(#paint0_linear_1_865)"/>
<path d="M19.2725 26.4516C19.2725 26.4516 19.2617 26.4461 19.259 26.4434C18.2364 25.9125 17.3115 25.2147 16.5195 24.3883C14.6859 22.4783 13.5603 19.8787 13.5603 17.0109C13.5603 14.1432 14.6886 11.5436 16.5195 9.63355C17.3115 8.80716 18.2364 8.1121 19.259 7.5785C19.7689 7.31307 20.3032 7.08868 20.8593 6.90808H14.0214C11.4202 6.90808 9.03064 7.90414 7.23234 9.54052H12.7601C12.7954 9.54052 12.8307 9.54599 12.8632 9.5542C12.5866 9.80595 12.3262 10.0714 12.0793 10.3532H6.43491C5.90057 10.9607 5.43947 11.6339 5.06245 12.359H10.7069C10.5686 12.6245 10.4438 12.8954 10.3299 13.1717H4.68272C4.41962 13.8093 4.22162 14.4825 4.09414 15.1775H9.73857C9.68975 15.4457 9.65177 15.7166 9.62465 15.9903H3.98022C3.95309 16.2612 3.93682 16.5348 3.9314 16.8112C3.9314 16.8769 3.9314 16.9425 3.9314 17.0082C3.9314 17.0739 3.9314 17.1395 3.9314 17.2025C3.93682 17.4707 3.95038 17.7361 3.97751 17.996H9.62194C9.64906 18.2697 9.68703 18.5406 9.73314 18.8088H4.08871C4.21348 19.5065 4.41148 20.177 4.67187 20.8146H10.3163C10.4302 21.0909 10.555 21.3618 10.6933 21.6273H5.04889C5.4232 22.3524 5.8843 23.0256 6.41864 23.6331H12.0631C12.3099 23.9149 12.573 24.1831 12.8469 24.4348C12.8171 24.4403 12.7873 24.4458 12.7574 24.4458H7.21336C9.00894 26.0822 11.3931 27.0782 13.9916 27.0782H19.1206C19.4705 27.0782 19.5817 26.6048 19.2698 26.4434L19.2725 26.4516Z" fill="white"/>
</g>
<defs>
<linearGradient id="paint0_linear_1_865" x1="16.6714" y1="9.48026" x2="31.9674" y2="24.6445" gradientUnits="userSpaceOnUse">
<stop stop-color="#84C4C9"/>
<stop offset="0.14" stop-color="#93CBCF"/>
<stop offset="0.5" stop-color="#B5DDDD"/>
<stop offset="0.8" stop-color="#CAE8E5"/>
<stop offset="1" stop-color="#D2ECE9"/>
</linearGradient>
<clipPath id="clip0_1_865">
<rect width="34" height="34" fill="white"/>
</clipPath>
</defs>
</svg>
