<svg width="20" height="20" viewBox="0 0 20 20" fill="none" xmlns="http://www.w3.org/2000/svg">
<path d="M18.3334 3.75004H15.8334V2.08337H4.16671V3.75004H1.66671C1.44569 3.75004 1.23373 3.83784 1.07745 3.99412C0.921174 4.1504 0.833374 4.36236 0.833374 4.58337V6.25004C0.834982 7.24818 1.19587 8.21237 1.85002 8.96629C2.50416 9.72021 3.40785 10.2135 4.39579 10.3558C4.70587 11.4352 5.32104 12.402 6.16737 13.1403C7.01372 13.8785 8.05521 14.3565 9.16671 14.5171V14.9487C9.16662 15.3204 9.04237 15.6813 8.81362 15.9742C8.58496 16.2671 8.26484 16.4752 7.90429 16.5654L5.83337 17.0834V17.9167H14.1667V17.0834L12.0959 16.5656C11.7353 16.4755 11.4151 16.2674 11.1864 15.9745C10.9576 15.6815 10.8334 15.3204 10.8334 14.9487V14.5171C11.9449 14.3565 12.9864 13.8785 13.8327 13.1403C14.679 12.402 15.2942 11.4352 15.6043 10.3558C16.5922 10.2135 17.496 9.72021 18.15 8.96629C18.8042 8.21237 19.1651 7.24818 19.1667 6.25004V4.58337C19.1667 4.36236 19.0789 4.1504 18.9226 3.99412C18.7664 3.83784 18.5544 3.75004 18.3334 3.75004ZM2.50004 6.25004V5.41671H4.16671V8.59646C3.68068 8.42521 3.25957 8.10779 2.96116 7.68764C2.66275 7.26752 2.50167 6.76535 2.50004 6.25004ZM14.1667 8.75004C14.1667 9.85512 13.7277 10.915 12.9463 11.6963C12.165 12.4777 11.1051 12.9167 10 12.9167C8.89496 12.9167 7.83517 12.4777 7.05376 11.6963C6.27236 10.915 5.83337 9.85512 5.83337 8.75004V3.75004H14.1667V8.75004ZM17.5 6.25004C17.4985 6.76535 17.3374 7.26753 17.039 7.68765C16.7405 8.10779 16.3194 8.42521 15.8334 8.59646V5.41671H17.5V6.25004Z" fill="#1271A6"/>
</svg>
