<svg width="20" height="20" viewBox="0 0 20 20" fill="none" xmlns="http://www.w3.org/2000/svg">
<path d="M19 4.0004H14V2.3304C13.9765 1.69022 13.7002 1.08546 13.2316 0.648694C12.7629 0.211928 12.1402 -0.021205 11.5 0.000401876H8.5C7.85975 -0.021205 7.23706 0.211928 6.76843 0.648694C6.2998 1.08546 6.02346 1.69022 6 2.3304V4.0004H1C0.734784 4.0004 0.48043 4.10576 0.292893 4.2933C0.105357 4.48083 0 4.73519 0 5.0004C0 5.26562 0.105357 5.51997 0.292893 5.70751C0.48043 5.89504 0.734784 6.0004 1 6.0004H2V17.0004C2 17.7961 2.31607 18.5591 2.87868 19.1217C3.44129 19.6843 4.20435 20.0004 5 20.0004H15C15.7956 20.0004 16.5587 19.6843 17.1213 19.1217C17.6839 18.5591 18 17.7961 18 17.0004V6.0004H19C19.2652 6.0004 19.5196 5.89504 19.7071 5.70751C19.8946 5.51997 20 5.26562 20 5.0004C20 4.73519 19.8946 4.48083 19.7071 4.2933C19.5196 4.10576 19.2652 4.0004 19 4.0004ZM8 2.3304C8 2.1704 8.21 2.0004 8.5 2.0004H11.5C11.79 2.0004 12 2.1704 12 2.3304V4.0004H8V2.3304ZM16 17.0004C16 17.2656 15.8946 17.52 15.7071 17.7075C15.5196 17.895 15.2652 18.0004 15 18.0004H5C4.73478 18.0004 4.48043 17.895 4.29289 17.7075C4.10536 17.52 4 17.2656 4 17.0004V6.0004H16V17.0004Z" fill="#3B4A5D"/>
</svg>
