<svg width="21" height="20" viewBox="0 0 21 20" fill="none" xmlns="http://www.w3.org/2000/svg">
<path fill-rule="evenodd" clip-rule="evenodd" d="M1.5 16.5455V3.45455C1.5 2.80356 1.7586 2.17924 2.21892 1.71892C2.67924 1.2586 3.30356 1 3.95455 1H17.0455C17.6964 1 18.3208 1.2586 18.7811 1.71892C19.2414 2.17924 19.5 2.80356 19.5 3.45455V16.5455C19.5 17.1964 19.2414 17.8208 18.7811 18.2811C18.3208 18.7414 17.6964 19 17.0455 19H3.95455C3.30356 19 2.67924 18.7414 2.21892 18.2811C1.7586 17.8208 1.5 17.1964 1.5 16.5455ZM3.13636 3.45455L3.13636 16.5455C3.13636 16.7624 3.22257 16.9706 3.376 17.124C3.52944 17.2774 3.73755 17.3636 3.95455 17.3636H9.04546L9.04545 2.63636L3.95455 2.63636C3.73755 2.63636 3.52944 2.72256 3.376 2.876C3.22256 3.02944 3.13636 3.23755 3.13636 3.45455ZM13.5909 2.63636V17.3636H10.6818L10.6818 2.63636L13.5909 2.63636ZM17.8636 16.5455C17.8636 16.7624 17.7774 16.9706 17.624 17.124C17.4706 17.2774 17.2624 17.3636 17.0455 17.3636H15.2273V2.63636H17.0455C17.2624 2.63636 17.4706 2.72256 17.624 2.876C17.7774 3.02944 17.8636 3.23755 17.8636 3.45455V16.5455Z" fill="white"/>
</svg>
