<svg width="190" height="40" viewBox="0 0 190 40" fill="none" xmlns="http://www.w3.org/2000/svg">
<path d="M50.928 10.1234C54.3661 10.1234 56.8559 12.515 56.8559 15.818C56.8559 19.121 54.3506 21.5112 50.8783 21.5112H46.2217V10.1234H50.928ZM48.1604 19.7872H50.9777C53.2035 19.7872 54.9079 18.1434 54.9079 15.8335C54.9079 13.5235 53.1554 11.8473 50.8954 11.8473H48.1604V19.7872Z" fill="#4F8FA5"/>
<path d="M66.2065 17.8998H59.6235C59.9185 19.2336 60.9507 20.0586 62.3259 20.0586C62.7826 20.0638 63.2355 19.9771 63.6575 19.8038C64.0796 19.6305 64.4619 19.3741 64.7815 19.0501L65.7812 20.1079C64.929 21.0332 63.6841 21.5713 62.1785 21.5713C59.4932 21.5713 57.7236 19.798 57.7236 17.1951C57.7236 14.5921 59.5413 12.808 62.1288 12.7988C65.1929 12.7988 66.4346 14.7756 66.2065 17.8998ZM64.572 16.5335C64.5068 15.1349 63.5724 14.2884 62.149 14.2884C60.7722 14.2884 59.8067 15.1503 59.594 16.5335H64.572Z" fill="#4F8FA5"/>
<path d="M75.0821 14.2066L74.0499 15.4109C73.7278 15.0845 73.3403 14.8289 72.9125 14.6608C72.4846 14.4926 72.026 14.4157 71.5663 14.4349C70.0591 14.4349 68.9788 15.5574 68.9788 17.1997C68.9788 18.8419 70.0653 19.9661 71.5663 19.9661C72.6637 19.9661 73.5469 19.6083 74.1368 18.9252L75.1845 19.9661C74.3991 20.99 73.1387 21.5759 71.484 21.5759C68.8965 21.5759 67.0959 19.8026 67.0959 17.1997C67.0959 14.5968 68.8919 12.7988 71.4794 12.7988C73.0518 12.7988 74.2796 13.2953 75.0821 14.2066Z" fill="#4F8FA5"/>
<path d="M78.9145 10.384C78.9066 10.5981 78.8354 10.8052 78.7099 10.9794C78.5843 11.1536 78.41 11.2873 78.2085 11.3637C78.007 11.4402 77.7874 11.4561 77.5769 11.4094C77.3664 11.3628 77.1744 11.2556 77.0247 11.1013C76.8751 10.947 76.7745 10.7523 76.7355 10.5416C76.6964 10.3309 76.7206 10.1134 76.8051 9.9163C76.8896 9.71916 77.0305 9.55107 77.2105 9.43297C77.3904 9.31487 77.6014 9.25198 77.8171 9.25214C77.9652 9.2505 78.1121 9.27897 78.2488 9.33581C78.3855 9.39265 78.509 9.47665 78.6118 9.58266C78.7146 9.68867 78.7944 9.81444 78.8465 9.95224C78.8985 10.09 78.9217 10.237 78.9145 10.384ZM76.8842 21.5112V12.8558H78.7468V21.5112H76.8842Z" fill="#4F8FA5"/>
<path d="M86.9239 13.653L86.2362 15.0409C85.4822 14.572 84.6182 14.3062 83.7294 14.2699C82.9937 14.2699 82.4535 14.515 82.4535 15.1334C82.4535 16.7263 87.0869 15.8643 87.0713 19.0039C87.0713 20.7772 85.4819 21.5744 83.7294 21.5744C82.4535 21.5744 81.0907 21.1519 80.2261 20.3716L80.8966 19.0362C81.651 19.7039 82.8617 20.1156 83.8117 20.1156C84.6142 20.1156 85.2366 19.8381 85.2366 19.1904C85.2366 17.4171 80.6514 18.4086 80.6685 15.286C80.6685 13.5281 82.2067 12.7803 83.8769 12.7803C84.9727 12.7756 86.1353 13.1072 86.9239 13.653Z" fill="#4F8FA5"/>
<path d="M90.7377 10.384C90.7298 10.5981 90.6586 10.8052 90.5331 10.9794C90.4076 11.1536 90.2332 11.2873 90.0317 11.3637C89.8303 11.4402 89.6106 11.4561 89.4001 11.4094C89.1896 11.3628 88.9976 11.2556 88.848 11.1013C88.6984 10.947 88.5978 10.7523 88.5587 10.5416C88.5196 10.3309 88.5439 10.1134 88.6283 9.9163C88.7128 9.71916 88.8538 9.55107 89.0337 9.43297C89.2137 9.31487 89.4246 9.25198 89.6403 9.25214C89.7885 9.2505 89.9354 9.27897 90.072 9.33581C90.2087 9.39265 90.3322 9.47665 90.435 9.58266C90.5378 9.68867 90.6177 9.81444 90.6697 9.95224C90.7218 10.09 90.7449 10.237 90.7377 10.384ZM88.7074 21.5112V12.8558H90.5701V21.5112H88.7074Z" fill="#4F8FA5"/>
<path d="M101.359 17.1843C101.359 19.7872 99.509 21.5759 96.8222 21.5759C94.1353 21.5759 92.2695 19.7872 92.2695 17.1843C92.2695 14.5813 94.1275 12.7988 96.8284 12.7988C99.5292 12.7988 101.359 14.5644 101.359 17.1843ZM94.1539 17.1997C94.1539 18.8759 95.2513 20.0139 96.8222 20.0139C98.393 20.0139 99.4749 18.8759 99.4749 17.1997C99.4749 15.5235 98.3852 14.4025 96.8284 14.4025C95.2715 14.4025 94.1601 15.5405 94.1601 17.1997H94.1539Z" fill="#4F8FA5"/>
<path d="M111.404 16.1265V21.5112H109.521V16.6538C109.521 15.3524 108.734 14.5551 107.424 14.5551C105.984 14.5706 105.083 15.5636 104.951 16.9129V21.5112H103.067V12.8558H104.95V14.5166C105.571 13.3123 106.685 12.7911 108.16 12.7911C110.192 12.7988 111.404 14.0602 111.404 16.1265Z" fill="#4F8FA5"/>
<path d="M128.075 21.5112L128.057 13.0038L124.439 20.3238H123.177L119.559 13.0038V21.5112H117.741V10.1234H120.034L123.817 17.6885L127.582 10.1234H129.86V21.5112H128.075Z" fill="#4F8FA5"/>
<path d="M137.736 20.4534C137.115 21.2244 136.115 21.5929 134.853 21.5929C132.97 21.5929 131.791 20.438 131.791 18.9083C131.791 17.3308 132.987 16.3223 135.083 16.3053H137.722V16.0447C137.722 14.9545 137.017 14.3038 135.642 14.3038C134.806 14.3038 133.934 14.5968 133.07 15.1827L132.293 13.8813C133.506 13.1658 134.39 12.7911 136.044 12.7911C138.288 12.7911 139.548 13.9306 139.566 15.8335L139.581 21.5112H137.736V20.4534ZM137.72 18.4688V17.6716H135.361C134.133 17.6716 133.56 17.9969 133.56 18.8265C133.56 19.6083 134.198 20.1126 135.246 20.1126C136.595 20.1126 137.621 19.4125 137.72 18.4688Z" fill="#4F8FA5"/>
<path d="M150.181 16.1264V21.5112H148.298V16.6538C148.298 15.3524 147.511 14.5551 146.201 14.5551C144.761 14.5705 143.86 15.5636 143.729 16.9129V21.5112H141.846V12.8558H143.735V14.5166C144.356 13.3123 145.465 12.7988 146.939 12.7988C148.969 12.7988 150.181 14.0601 150.181 16.1264Z" fill="#4F8FA5"/>
<path d="M157.664 20.4534C157.043 21.2244 156.044 21.5929 154.783 21.5929C152.899 21.5929 151.721 20.438 151.721 18.9083C151.721 17.3308 152.916 16.3223 155.012 16.3053H157.65V16.0447C157.65 14.9545 156.946 14.3038 155.57 14.3038C154.735 14.3038 153.863 14.5968 153 15.1827L152.224 13.8813C153.436 13.1658 154.319 12.7911 155.974 12.7911C158.217 12.7911 159.477 13.9306 159.494 15.8335L159.511 21.5112H157.66L157.664 20.4534ZM157.649 18.4688V17.6716H155.291C154.062 17.6716 153.489 17.9969 153.489 18.8265C153.489 19.6083 154.128 20.1126 155.176 20.1126C156.519 20.1126 157.549 19.4125 157.649 18.4688Z" fill="#4F8FA5"/>
<path d="M169.635 20.6631C169.635 23.1534 167.85 24.7139 165.116 24.7139C163.821 24.7109 162.558 24.3137 161.497 23.5759L162.299 22.2251C163.119 22.8281 163.969 23.1688 165.034 23.1688C166.687 23.1688 167.769 22.2097 167.769 20.7124V19.6222C167.179 20.5659 166.197 21.0871 164.887 21.0871C162.529 21.0871 160.957 19.3909 160.957 16.9052C160.957 14.4657 162.509 12.8065 164.822 12.7895C166.164 12.7741 167.162 13.3107 167.771 14.2544V12.8558H169.633L169.635 20.6631ZM167.772 16.9622C167.772 15.4001 166.74 14.3099 165.267 14.3099C163.794 14.3099 162.745 15.4171 162.728 16.9622C162.745 18.5243 163.76 19.6299 165.267 19.6299C166.737 19.6237 167.769 18.5181 167.769 16.9622H167.772Z" fill="#4F8FA5"/>
<path d="M179.658 17.8998H173.072C173.366 19.2336 174.397 20.0586 175.774 20.0586C176.231 20.0638 176.684 19.9771 177.106 19.8038C177.528 19.6305 177.91 19.3741 178.23 19.0501L179.229 20.1079C178.377 21.0332 177.132 21.5713 175.626 21.5713C172.94 21.5713 171.172 19.798 171.172 17.1951C171.172 14.5921 172.989 12.8034 175.577 12.7864C178.642 12.7988 179.887 14.7756 179.658 17.8998ZM178.02 16.5335C177.955 15.1349 177.02 14.2884 175.597 14.2884C174.22 14.2884 173.255 15.1504 173.042 16.5335H178.02Z" fill="#4F8FA5"/>
<path d="M183.243 14.5813C183.833 13.4156 184.881 12.7988 186.265 12.7988V14.5813C184.513 14.4842 183.398 15.5066 183.251 16.9884V21.5112H181.36V12.8558H183.243V14.5813Z" fill="#4F8FA5"/>
<path d="M49.2967 28.2374C49.2967 29.3554 48.5609 30.1372 47.4853 30.1372C47.1849 30.1514 46.8866 30.0809 46.6248 29.9338C46.3631 29.7867 46.1485 29.5691 46.006 29.3061V30.1156H45.4441V24.7957H46.006V27.1549C46.145 26.8915 46.3566 26.6727 46.616 26.5241C46.8755 26.3756 47.1721 26.3034 47.4713 26.3161C48.547 26.3161 49.2967 27.1041 49.2967 28.2374ZM48.727 28.2236C48.727 27.4125 48.1636 26.8172 47.3704 26.8172C46.5772 26.8172 46.006 27.4063 46.006 28.2236C46.006 29.0408 46.5694 29.6283 47.3704 29.6283C48.1713 29.6283 48.727 29.0408 48.727 28.2189V28.2236Z" fill="#91C8CE"/>
<path d="M51.3783 30.6539C51.1408 31.2337 50.7434 31.5359 50.2389 31.5359C49.9465 31.5422 49.6617 31.4424 49.438 31.2552L49.6755 30.7926C49.8296 30.9076 50.0168 30.9703 50.2094 30.9715C50.5059 30.9715 50.7512 30.7926 50.9017 30.4411L51.0569 30.0895L49.4923 26.3377H50.0837L51.3472 29.4526L52.5517 26.3347H53.1291L51.3783 30.6539Z" fill="#91C8CE"/>
<path d="M56.291 28.8466L55.7244 30.1156H55.1035L57.3697 25.0979H57.9689L60.2274 30.1156H59.6065L59.043 28.8466H56.291ZM57.6631 25.7517L56.5362 28.2961H58.8024L57.6631 25.7517Z" fill="#91C8CE"/>
<path d="M61.5173 27.1766C61.6298 26.9128 61.8204 26.6892 62.0638 26.5355C62.3073 26.3818 62.592 26.3053 62.8802 26.3161V26.8821C62.0792 26.8682 61.5825 27.3632 61.5173 28.108V30.1126H60.9539V26.3377H61.5173V27.1766Z" fill="#91C8CE"/>
<path d="M67.1098 28.219C67.1098 29.3508 66.3088 30.1326 65.1835 30.1326C64.0581 30.1326 63.2556 29.3508 63.2556 28.219C63.2556 27.0871 64.0581 26.3192 65.1835 26.3192C66.3088 26.3192 67.1098 27.0979 67.1098 28.219ZM63.8191 28.219C63.8191 29.0517 64.3887 29.6238 65.1835 29.6238C65.9782 29.6238 66.5479 29.0517 66.5479 28.219C66.5479 27.3863 65.9766 26.8219 65.1835 26.8219C64.3903 26.8219 63.8191 27.4063 63.8191 28.2298V28.219Z" fill="#91C8CE"/>
<path d="M71.5709 28.219C71.5709 29.3508 70.77 30.1326 69.6446 30.1326C68.5193 30.1326 67.7168 29.3508 67.7168 28.219C67.7168 27.0871 68.5177 26.3192 69.6446 26.3192C70.7715 26.3192 71.5709 27.0979 71.5709 28.219ZM68.2802 28.219C68.2802 29.0517 68.8499 29.6238 69.6446 29.6238C70.4394 29.6238 71.0075 29.0517 71.0075 28.219C71.0075 27.3863 70.4378 26.8219 69.6446 26.8219C68.8515 26.8219 68.2802 27.4063 68.2802 28.2298V28.219Z" fill="#91C8CE"/>
<path d="M74.5233 29.8581C74.271 30.034 73.9729 30.1336 73.6649 30.1449C73.1093 30.1449 72.6979 29.8149 72.6979 29.0655V26.9067H72.1484V26.4549H72.6979V25.4587H73.2536V26.4549L74.4581 26.4472V26.9098H73.2536V28.9668C73.2536 29.4294 73.4337 29.5975 73.7581 29.5975C73.9745 29.5908 74.1847 29.524 74.365 29.4048L74.5233 29.8581Z" fill="#91C8CE"/>
<path d="M77.7348 29.5343C77.4321 29.9429 76.9478 30.1511 76.3378 30.1511C75.5509 30.1511 75.0464 29.6484 75.0464 28.9961C75.0464 28.3439 75.5726 27.9167 76.4667 27.9167H77.7084V27.6947C77.7084 27.1426 77.3623 26.8126 76.6902 26.8126C76.2535 26.8283 75.8325 26.9787 75.4857 27.2429L75.259 26.8311C75.7511 26.5089 76.1624 26.3223 76.8113 26.3223C77.7426 26.3223 78.2688 26.8173 78.2765 27.6268V30.1218H77.7348V29.5343ZM77.7271 28.8111V28.3593H76.5443C75.9094 28.3593 75.5772 28.5536 75.5772 28.9761C75.5772 29.3986 75.9156 29.6654 76.4496 29.6654C77.0922 29.6577 77.5827 29.3338 77.7271 28.8111Z" fill="#91C8CE"/>
<path d="M83.062 27.7856V30.1156H82.4985V27.9367C82.4985 27.2691 82.0949 26.8758 81.4228 26.8758C80.6141 26.8758 80.1391 27.4495 80.1391 28.2637V30.1141H79.5757V24.7957H80.1391V27.1827C80.3984 26.5952 80.9152 26.3238 81.6184 26.3161C82.528 26.3161 83.062 26.8758 83.062 27.7856Z" fill="#91C8CE"/>
<path d="M24.6057 13.2367H21.6519V31.3863H24.6057V13.2367Z" fill="#4F90A6"/>
<path d="M29.0371 13.2367H26.0833V31.3863H29.0371V13.2367Z" fill="#84C3C8"/>
<path d="M20.1755 13.2367H17.2217V31.3863H20.1755V13.2367Z" fill="#84C3C8"/>
<path d="M30.6702 28.5706V11.5498H18.698V8.6153H33.6256V24.0941V28.5706H30.6702Z" fill="#4F90A6"/>
<path d="M7.39463 20.5351C8.99343 20.5351 10.2895 19.2475 10.2895 17.6592C10.2895 16.0709 8.99343 14.7833 7.39463 14.7833C5.79584 14.7833 4.49976 16.0709 4.49976 17.6592C4.49976 19.2475 5.79584 20.5351 7.39463 20.5351Z" fill="#84C3C8"/>
<path d="M38.9278 20.5351C40.5266 20.5351 41.8227 19.2475 41.8227 17.6592C41.8227 16.0709 40.5266 14.7833 38.9278 14.7833C37.329 14.7833 36.033 16.0709 36.033 17.6592C36.033 19.2475 37.329 20.5351 38.9278 20.5351Z" fill="#84C3C8"/>
<path d="M31.5364 26.495L33.6241 28.5705L40.3141 21.926H36.1356L31.5364 26.495Z" fill="#4F90A6"/>
<path d="M15.561 28.5706V11.5498H27.5332V8.6153H12.6072V24.0941V28.5706H15.561Z" fill="#4F90A6"/>
<path d="M14.6965 26.495L12.6072 28.5705L5.9187 21.926H10.0957L14.6965 26.495Z" fill="#4F90A6"/>
</svg>
