<svg width="20" height="18" viewBox="0 0 20 18" fill="none" xmlns="http://www.w3.org/2000/svg">
<path d="M13.8893 5.98515C11.2322 5.01893 8.45436 3.93194 5.79727 2.96573C5.79727 3.0865 5.79732 3.08652 5.91809 3.2073C6.76353 5.01895 7.48819 6.70985 8.33363 8.5215C8.33363 8.64228 8.45435 8.76303 8.57512 8.64225C8.6959 8.64225 8.69591 8.64225 8.81669 8.64225C9.2998 8.64225 9.5414 8.88378 9.5414 9.36688C9.5414 11.4201 8.21284 13.111 6.28041 13.8356C3.38176 14.8019 0.36233 12.8694 0 9.85002C0 9.72924 0 9.48766 0 9.36688C0 9.00455 0.241524 8.64225 0.724631 8.64225C1.08696 8.64225 1.20774 8.52145 1.32852 8.15911C2.17395 6.22669 3.01943 4.41509 3.86487 2.48266C3.86487 2.36189 3.86484 2.36187 3.98562 2.2411C3.50251 2.12032 3.14021 1.87874 2.6571 1.75796C2.41555 1.63718 2.17397 1.39566 2.17397 1.03333C2.17397 0.791774 2.41552 0.429443 2.77785 0.429443C2.89863 0.429443 3.01943 0.429443 3.26099 0.429443C5.31419 1.1541 7.48819 1.99954 9.5414 2.84498C9.66217 2.84498 9.78294 2.96573 9.90371 2.96573C9.90371 2.6034 9.90371 2.24111 9.90371 1.87878C9.90371 1.758 9.90371 1.51642 9.90371 1.39564C9.90371 1.03331 10.266 0.791759 10.6283 0.791759C10.9907 0.791759 11.2322 1.03331 11.2322 1.39564C11.2322 1.99953 11.2322 2.48266 11.2322 3.08655C11.2322 3.3281 11.2322 3.32809 11.4738 3.44886C13.527 4.17352 15.4594 4.89814 17.5126 5.74358C17.7542 5.86436 17.9958 5.98513 17.9958 6.34746C18.1165 6.83057 17.6334 7.31372 17.1503 7.07217C16.9088 6.95139 16.6672 6.95138 16.4256 6.8306C16.1841 6.70982 15.9425 6.70981 15.701 6.58903C15.701 6.70981 15.701 6.70982 15.8217 6.8306C16.5464 8.52147 17.3919 10.2123 18.1165 12.024C18.2373 12.1448 18.2373 12.2656 18.3581 12.1448C18.4789 12.1448 18.4789 12.1448 18.5997 12.1448C19.0828 12.1448 19.3243 12.3863 19.3243 12.8694C19.3243 14.5603 18.4788 16.0096 17.0295 16.8551C14.1309 18.6667 10.3868 16.8551 9.90371 13.4733C9.90371 13.2318 9.90371 13.111 9.90371 12.8694C9.90371 12.3863 10.1452 12.1448 10.6283 12.1448C10.9907 12.1448 11.1115 12.024 11.2322 11.7824C12.0777 9.84999 12.9231 8.0384 13.7686 6.10597C13.7686 6.10597 13.7686 6.10592 13.8893 5.98515ZM17.875 13.5941C15.701 13.5941 13.527 13.5941 11.2322 13.5941C11.4738 15.2849 13.1647 16.372 14.8555 16.2512C16.4256 16.1304 17.875 14.6811 17.875 13.5941ZM1.32852 9.97077C1.57007 11.2993 2.77785 12.6279 4.5895 12.6279C6.52193 12.6279 7.72971 11.1785 7.85049 9.97077C5.79729 9.97077 3.62327 9.97077 1.32852 9.97077ZM4.71032 3.93193C3.98566 5.50203 3.26094 7.07215 2.53628 8.64225C3.9856 8.64225 5.31415 8.64225 6.76347 8.64225C6.03881 6.95138 5.43499 5.50203 4.71032 3.93193ZM16.6672 12.1448C15.9425 10.5747 15.2178 9.00458 14.614 7.43448C13.8893 9.00458 13.1647 10.5747 12.44 12.1448C13.8893 12.1448 15.3386 12.1448 16.6672 12.1448Z" fill="#1271A6"/>
</svg>
