<svg width="20" height="20" viewBox="0 0 20 20" fill="none" xmlns="http://www.w3.org/2000/svg">
<path d="M9.65269 5C11.5798 5 13.5121 5 15.4391 5C16.0173 5 16.4131 5.47917 16.2829 6.02083C16.2048 6.34375 15.9964 6.55208 15.6683 6.63542C15.5641 6.66146 15.4496 6.66667 15.3402 6.66667C11.5485 6.66667 7.75165 6.66667 3.95998 6.66667C3.82978 6.66667 3.69957 6.65625 3.57457 6.61979C3.20477 6.51041 2.95477 6.11979 3.00686 5.74479C3.05894 5.33333 3.37665 5.02604 3.7829 5.00521C3.91311 5 4.04332 5.00521 4.17352 5.00521C6.00165 5 7.82457 5 9.65269 5Z" fill="white"/>
<path d="M9.6527 10.8176C8.28291 10.8176 6.91311 10.8176 5.54332 10.8176C5.01207 10.8176 4.63707 10.4374 4.66832 9.93738C4.68915 9.52592 5.02249 9.19259 5.43395 9.16134C5.48603 9.15613 5.53812 9.15613 5.5902 9.15613C8.30374 9.15613 11.0173 9.15613 13.7308 9.15613C14.2464 9.15613 14.611 9.45821 14.6475 9.91654C14.6839 10.4061 14.3141 10.8072 13.8089 10.8072C12.9496 10.8124 12.0954 10.8072 11.236 10.8072C10.7048 10.8176 10.1787 10.8176 9.6527 10.8176Z" fill="white"/>
<path d="M9.63707 14.9791C8.81415 14.9791 7.98603 14.9843 7.16311 14.9791C6.76728 14.9791 6.43916 14.7082 6.35061 14.3436C6.26207 13.9686 6.43395 13.578 6.78811 13.4166C6.91832 13.3541 7.07457 13.3228 7.2204 13.3228C8.8454 13.3176 10.4704 13.3176 12.0954 13.3176C12.6162 13.3176 12.9808 13.6666 12.9808 14.1509C12.9808 14.6353 12.6162 14.9791 12.0954 14.9843C11.2725 14.9791 10.4548 14.9791 9.63707 14.9791Z" fill="white"/>
</svg>
