<svg width="14" height="18" viewBox="0 0 14 18" fill="none" xmlns="http://www.w3.org/2000/svg">
<path d="M11.1663 5.66663H10.333V4.09163C10.333 3.20758 9.98182 2.35973 9.3567 1.73461C8.73158 1.10949 7.88373 0.758301 6.99967 0.758301C6.11562 0.758301 5.26777 1.10949 4.64265 1.73461C4.01753 2.35973 3.66634 3.20758 3.66634 4.09163V5.66663H2.83301C2.16997 5.66663 1.53408 5.93003 1.06524 6.39887C0.5964 6.86771 0.333008 7.50359 0.333008 8.16663V14.8333C0.333008 15.4963 0.5964 16.1322 1.06524 16.6011C1.53408 17.0699 2.16997 17.3333 2.83301 17.3333H11.1663C11.8294 17.3333 12.4653 17.0699 12.9341 16.6011C13.4029 16.1322 13.6663 15.4963 13.6663 14.8333V8.16663C13.6663 7.50359 13.4029 6.86771 12.9341 6.39887C12.4653 5.93003 11.8294 5.66663 11.1663 5.66663ZM5.33301 4.09163C5.3218 3.63771 5.49088 3.19784 5.80324 2.8683C6.11561 2.53876 6.5458 2.34639 6.99967 2.3333C7.45354 2.34639 7.88374 2.53876 8.19611 2.8683C8.50847 3.19784 8.67755 3.63771 8.66634 4.09163V5.66663H5.33301V4.09163ZM11.9997 14.8333C11.9997 15.0543 11.9119 15.2663 11.7556 15.4226C11.5993 15.5788 11.3874 15.6666 11.1663 15.6666H2.83301C2.61199 15.6666 2.40003 15.5788 2.24375 15.4226C2.08747 15.2663 1.99967 15.0543 1.99967 14.8333V8.16663C1.99967 7.94562 2.08747 7.73366 2.24375 7.57738C2.40003 7.4211 2.61199 7.3333 2.83301 7.3333H11.1663C11.3874 7.3333 11.5993 7.4211 11.7556 7.57738C11.9119 7.73366 11.9997 7.94562 11.9997 8.16663V14.8333Z" fill="#E6E8EA"/>
<path d="M6.99968 9.00008C6.50522 9.00008 6.02187 9.1467 5.61075 9.42141C5.19963 9.69611 4.8792 10.0866 4.68998 10.5434C4.50076 11.0002 4.45125 11.5029 4.54771 11.9878C4.64418 12.4728 4.88228 12.9182 5.23191 13.2678C5.58154 13.6175 6.027 13.8556 6.51195 13.952C6.9969 14.0485 7.49957 13.999 7.95638 13.8098C8.4132 13.6206 8.80365 13.3001 9.07835 12.889C9.35305 12.4779 9.49968 11.9945 9.49968 11.5001C9.49968 10.837 9.23628 10.2012 8.76744 9.73231C8.2986 9.26347 7.66272 9.00008 6.99968 9.00008ZM6.99968 12.3334C6.83486 12.3334 6.67374 12.2845 6.5367 12.193C6.39966 12.1014 6.29285 11.9713 6.22978 11.819C6.1667 11.6667 6.1502 11.4992 6.18235 11.3375C6.21451 11.1759 6.29388 11.0274 6.41042 10.9108C6.52696 10.7943 6.67545 10.7149 6.8371 10.6828C6.99875 10.6506 7.16631 10.6671 7.31858 10.7302C7.47085 10.7933 7.601 10.9001 7.69257 11.0371C7.78413 11.1741 7.83301 11.3353 7.83301 11.5001C7.83301 11.7211 7.74521 11.9331 7.58893 12.0893C7.43265 12.2456 7.22069 12.3334 6.99968 12.3334Z" fill="#E6E8EA"/>
</svg>
